<!-- icon666.com - MILLIONS vector ICONS FREE --><svg version="1.1" id="Capa_1" xmlns="http://www.w3.org/2000/svg" xmlns:xlink="http://www.w3.org/1999/xlink" x="0px" y="0px" viewBox="0 0 512 512" style="enable-background:new 0 0 512 512;" xml:space="preserve"><g><g><g><path d="M92.816,400.248c-2.36-3.736-7.312-4.864-11.032-2.496c-3.736,2.368-4.848,7.304-2.488,11.04 c1.016,1.624,2.072,3.224,3.152,4.808c1.544,2.272,4.056,3.496,6.616,3.496c1.552,0,3.12-0.456,4.496-1.392 c3.648-2.488,4.592-7.464,2.104-11.12C94.688,403.152,93.744,401.712,92.816,400.248z"></path><path d="M192.88,463.088c-29.288-3.256-57.16-16.216-78.496-36.488c-3.192-3.048-8.264-2.904-11.312,0.28 c-3.048,3.2-2.912,8.272,0.288,11.312c23.848,22.672,55.016,37.16,87.752,40.8c0.304,0.032,0.6,0.048,0.896,0.048 c4.024,0,7.488-3.024,7.944-7.12C200.432,467.536,197.272,463.584,192.88,463.088z"></path><path d="M494.528,49.632c-6.136-5.952-14.184-9.288-22.8-8.824l-200.641,6.714C267.187,29.525,251.147,16,232,16h-48V8 c0-4.424-3.584-8-8-8s-8,3.576-8,8v280h-16V8c0-4.424-3.584-8-8-8s-8,3.576-8,8v280h-16V8c0-4.424-3.584-8-8-8s-8,3.576-8,8v280 H16c-4.416,0-8,3.576-8,8c0,119.104,89.72,216,200,216s200-96.896,200-216c0-4.424-3.584-8-8-8h-88.455 c-3.994-35.951-34.553-64-71.545-64c-22.598,0-42.789,10.475-56,26.816V128h48c19.147,0,35.187-13.526,39.087-31.522 l200.641,6.714c0.096,0.008,0.904,0.008,0.992,0.008c17.248,0,31.28-14,31.28-31.2C504,63.496,500.64,55.544,494.528,49.632z M208,496c-86.238,0-158.806-64.829-178.636-152h357.272C366.806,431.171,294.238,496,208,496z M389.643,328H26.357 c-1.167-7.858-1.917-15.867-2.213-24h367.712C391.561,312.133,390.81,320.142,389.643,328z M217.377,288 c3.303-9.311,12.196-16,22.623-16s19.32,6.689,22.623,16H217.377z M240,240c28.163,0,51.524,20.903,55.419,48h-16.224 c-3.716-18.236-19.878-32-39.195-32s-35.479,13.764-39.195,32h-16.224C188.476,260.903,211.837,240,240,240z M256,88 c0,13.232-10.768,24-24,24h-48V96h48c4.416,0,8-3.576,8-8s-3.584-8-8-8h-48V64h48c4.416,0,8-3.576,8-8s-3.584-8-8-8h-48V32h48 c13.232,0,24,10.768,24,24V88z M472.264,87.208L272,80.507V63.494L472.24,56.8c4.152-0.28,8.144,1.4,11.144,4.312 C486.36,63.992,488,67.856,488,72C488,80.384,481.144,87.2,472.264,87.208z"></path></g></g></g></svg>