<!-- icon666.com - MILLIONS vector ICONS FREE --><svg version="1.1" id="Layer_1" xmlns="http://www.w3.org/2000/svg" xmlns:xlink="http://www.w3.org/1999/xlink" x="0px" y="0px" viewBox="0 0 512 512" style="enable-background:new 0 0 512 512;" xml:space="preserve"><g><g><path d="M7.151,191.642V343.24c0,67.491,54.644,122.451,122.012,122.982L140.607,512h230.784l11.445-45.778 c67.369-0.531,122.013-55.49,122.013-122.982V191.642H7.151z M357.993,494.838H154.006l-7.15-28.603h218.287L357.993,494.838z M487.687,343.24c0,58.357-47.476,105.832-105.832,105.832H130.145c-58.357,0-105.832-47.476-105.832-105.832v-77.229h346.101 v-17.162H24.313v-40.045h463.374V343.24z"></path></g></g><g><g><rect x="393.296" y="248.849" width="40.045" height="17.162"></rect></g></g><g><g><path d="M260.204,69.727c-11.472-6.455-18.505-10.792-18.505-18.264c0-7.467,7.032-11.799,18.507-18.251 C272.35,26.384,287.464,17.885,287.464,0h-17.162c0,7.467-7.032,11.801-18.507,18.252c-12.144,6.827-27.258,15.326-27.258,33.211 c0,17.889,15.111,26.389,27.252,33.221c11.478,6.459,18.513,10.796,18.513,18.278c0,7.471-7.032,11.807-18.506,18.263 c-12.144,6.833-27.259,15.337-27.259,33.234h17.162c0-7.48,7.034-11.819,18.513-18.276c12.142-6.831,27.252-15.333,27.252-33.221 C287.464,85.064,272.349,76.56,260.204,69.727z"></path></g></g><g><g><path d="M145.79,69.727c-11.472-6.455-18.505-10.792-18.505-18.264c0-7.467,7.032-11.799,18.508-18.251 C157.936,26.384,173.05,17.885,173.05,0h-17.162c0,7.467-7.032,11.801-18.508,18.252c-12.144,6.827-27.258,15.326-27.258,33.211 c0,17.889,15.111,26.389,27.252,33.221c11.478,6.459,18.513,10.796,18.513,18.278c0,7.471-7.032,11.807-18.506,18.263 c-12.144,6.833-27.259,15.337-27.259,33.234h17.162c0-7.48,7.034-11.819,18.513-18.276c12.142-6.831,27.252-15.333,27.252-33.221 C173.05,85.064,157.935,76.56,145.79,69.727z"></path></g></g><g><g><path d="M374.617,69.727c-11.472-6.455-18.505-10.792-18.505-18.264c0-7.467,7.033-11.799,18.508-18.251 C386.763,26.384,401.877,17.885,401.877,0h-17.162c0,7.467-7.033,11.801-18.508,18.252c-12.144,6.827-27.258,15.326-27.258,33.211 c0,17.889,15.111,26.389,27.252,33.221c11.478,6.459,18.513,10.796,18.513,18.278c0,7.471-7.033,11.807-18.506,18.263 c-12.144,6.833-27.259,15.337-27.259,33.234h17.162c0-7.48,7.034-11.819,18.513-18.276c12.142-6.831,27.252-15.333,27.252-33.221 C401.877,85.064,386.762,76.56,374.617,69.727z"></path></g></g></svg>